<svg width="1200" height="334" viewBox="0 0 1200 334" fill="none" xmlns="http://www.w3.org/2000/svg">
<g id="Group 18">
<line id="Line 1" x1="312" y1="171" x2="1104" y2="171" stroke="#32335A" stroke-width="2"/>
<g id="Group 7">
<g id="Ellipse 12" filter="url(#filter0_d)">
<circle cx="1080" cy="173" r="96" fill="white"/>
</g>
<path id="SNS &#237;&#149;&#180;&#236;&#139;&#156;&#237;&#131;&#156;&#234;&#183;&#184; &#235;&#158;&#156;&#235;&#147;&#156;&#235;&#167;&#136;&#237;&#129;&#172; &#236;&#132;&#160;&#236;&#160;&#149;" d="M1034.99 162.643C1034.99 162.145 1034.82 161.764 1034.46 161.5C1034.11 161.23 1033.48 160.949 1032.57 160.656C1031.65 160.357 1030.93 160.064 1030.39 159.777C1028.94 158.992 1028.21 157.935 1028.21 156.604C1028.21 155.913 1028.41 155.298 1028.79 154.759C1029.19 154.214 1029.75 153.789 1030.47 153.484C1031.21 153.18 1032.03 153.027 1032.93 153.027C1033.85 153.027 1034.66 153.194 1035.38 153.528C1036.09 153.856 1036.65 154.322 1037.04 154.926C1037.44 155.529 1037.64 156.215 1037.64 156.982H1035C1035 156.396 1034.82 155.942 1034.45 155.62C1034.08 155.292 1033.56 155.128 1032.89 155.128C1032.25 155.128 1031.75 155.266 1031.39 155.541C1031.03 155.811 1030.85 156.168 1030.85 156.613C1030.85 157.029 1031.06 157.378 1031.48 157.659C1031.9 157.94 1032.52 158.204 1033.33 158.45C1034.83 158.901 1035.92 159.461 1036.61 160.129C1037.29 160.797 1037.64 161.629 1037.64 162.625C1037.64 163.732 1037.22 164.603 1036.38 165.235C1035.54 165.862 1034.41 166.176 1033 166.176C1032.01 166.176 1031.12 165.997 1030.31 165.64C1029.5 165.276 1028.88 164.781 1028.45 164.154C1028.03 163.527 1027.82 162.801 1027.82 161.975H1030.46C1030.46 163.387 1031.31 164.093 1033 164.093C1033.62 164.093 1034.11 163.967 1034.46 163.715C1034.82 163.457 1034.99 163.1 1034.99 162.643ZM1049.84 166H1047.2L1042.07 157.58V166H1039.43V153.203H1042.07L1047.21 161.641V153.203H1049.84V166ZM1058.77 162.643C1058.77 162.145 1058.6 161.764 1058.25 161.5C1057.9 161.23 1057.26 160.949 1056.35 160.656C1055.43 160.357 1054.71 160.064 1054.18 159.777C1052.72 158.992 1052 157.935 1052 156.604C1052 155.913 1052.19 155.298 1052.58 154.759C1052.97 154.214 1053.53 153.789 1054.26 153.484C1054.99 153.18 1055.81 153.027 1056.72 153.027C1057.63 153.027 1058.45 153.194 1059.16 153.528C1059.88 153.856 1060.43 154.322 1060.82 154.926C1061.22 155.529 1061.42 156.215 1061.42 156.982H1058.78C1058.78 156.396 1058.6 155.942 1058.23 155.62C1057.86 155.292 1057.34 155.128 1056.67 155.128C1056.03 155.128 1055.53 155.266 1055.17 155.541C1054.81 155.811 1054.63 156.168 1054.63 156.613C1054.63 157.029 1054.84 157.378 1055.26 157.659C1055.68 157.94 1056.3 158.204 1057.11 158.45C1058.61 158.901 1059.71 159.461 1060.39 160.129C1061.08 160.797 1061.42 161.629 1061.42 162.625C1061.42 163.732 1061 164.603 1060.16 165.235C1059.33 165.862 1058.2 166.176 1056.78 166.176C1055.79 166.176 1054.9 165.997 1054.09 165.64C1053.28 165.276 1052.66 164.781 1052.24 164.154C1051.81 163.527 1051.6 162.801 1051.6 161.975H1054.25C1054.25 163.387 1055.09 164.093 1056.78 164.093C1057.41 164.093 1057.9 163.967 1058.25 163.715C1058.6 163.457 1058.77 163.1 1058.77 162.643ZM1071.3 162.004C1070.4 162.004 1069.76 161.284 1069.76 160.042C1069.76 158.8 1070.4 158.062 1071.3 158.062C1072.2 158.062 1072.85 158.8 1072.85 160.042C1072.85 161.284 1072.2 162.004 1071.3 162.004ZM1071.3 156.082C1069.18 156.082 1067.67 157.72 1067.67 160.042C1067.67 162.346 1069.18 163.984 1071.3 163.984C1073.43 163.984 1074.94 162.346 1074.94 160.042C1074.94 157.72 1073.43 156.082 1071.3 156.082ZM1072.47 151.42H1070.13V153.472H1067.31V155.362H1075.23V153.472H1072.47V151.42ZM1079.3 150.952V157.72H1078.04V151.276H1075.82V166.846H1078.04V159.628H1079.3V167.53H1081.55V150.952H1079.3ZM1090.31 152.248H1087.94V154.66C1087.94 157.882 1086.57 161.086 1083.67 162.328L1085.09 164.29C1087.07 163.354 1088.42 161.572 1089.16 159.358C1089.9 161.392 1091.18 163.03 1093.08 163.894L1094.43 161.968C1091.63 160.762 1090.31 157.738 1090.31 154.66V152.248ZM1095.24 150.952V167.584H1097.62V150.952H1095.24ZM1103.25 158.854H1107.36V157.018H1103.25V154.57H1107.7V152.68H1101V163.768H1102.15C1104.64 163.768 1106.28 163.732 1108.18 163.408L1107.97 161.5C1106.42 161.734 1105.09 161.806 1103.25 161.824V158.854ZM1112.41 150.952V157.378H1111.08V151.222H1108.87V166.81H1111.08V159.286H1112.41V167.548H1114.66V150.952H1112.41ZM1127.78 154.462C1127.78 156.712 1127.78 159.07 1127.19 162.238L1129.55 162.454C1130.16 159.052 1130.16 156.784 1130.16 154.462V152.5H1118.55V154.39H1127.78V154.462ZM1117 163.444V165.388H1132V163.444H1117ZM1039.41 180.594H1040.74V186.264H1042.99V173.97H1040.74V178.686H1039.41V174.276H1037.19V185.94H1039.41V180.594ZM1036.42 181.764C1034.92 182.034 1033.57 182.124 1031.81 182.142V180.486H1035.79V175.32H1029.51V177.174H1033.5V178.758H1029.52V184.014H1030.68C1033.11 184.014 1034.74 183.96 1036.62 183.636L1036.42 181.764ZM1034.2 188.37V185.13H1031.83V190.26H1043.4V188.37H1034.2ZM1058.83 181.62H1049.54V177.264H1058.7V175.338H1047.16V183.51H1058.83V181.62ZM1045.42 186.624V188.568H1060.43V186.624H1045.42ZM1064.82 177.408H1068.06V184.644H1064.82V177.408ZM1062.48 186.516H1070.4V175.536H1062.48V186.516ZM1077.36 180.216H1074.95V173.988H1072.58V190.548H1074.95V182.178H1077.36V180.216ZM1079.76 180.306L1080.04 182.232L1089.51 181.746C1089.4 182.862 1089.22 184.068 1088.9 185.418L1091.24 185.652C1092.01 182.052 1092.01 179.766 1092.01 177.354V175.428H1080.22V177.318H1089.67V177.354C1089.67 178.2 1089.67 179.064 1089.64 179.982L1079.76 180.306ZM1078.55 186.642V188.586H1093.53V186.642H1078.55ZM1111.06 186.21H1113.43V173.97H1111.06V177.498H1108.02V179.424H1111.06V186.21ZM1109.47 181.962C1106.88 181.044 1105.77 178.938 1105.77 176.778V174.978H1103.35V176.76C1103.35 179.118 1102.2 181.422 1099.47 182.34L1100.71 184.194C1102.63 183.492 1103.91 182.142 1104.61 180.432C1105.3 181.962 1106.49 183.168 1108.21 183.798L1109.47 181.962ZM1104.87 188.37V184.986H1102.49V190.26H1113.79V188.37H1104.87ZM1125.13 177.966V179.892H1127.62V183.834H1129.99V173.97H1127.62V177.966H1125.13ZM1126.12 181.53C1123.6 180.702 1122.45 178.758 1122.38 176.868H1125.6V174.96H1116.69V176.868H1119.95C1119.88 178.938 1118.67 181.044 1116.04 181.962L1117.25 183.834C1119.17 183.186 1120.49 181.836 1121.21 180.162C1121.93 181.62 1123.17 182.79 1124.97 183.384L1126.12 181.53ZM1124.39 188.766C1122.22 188.766 1121.08 188.316 1121.08 187.38C1121.08 186.444 1122.22 185.994 1124.39 185.994C1126.55 185.994 1127.69 186.444 1127.69 187.38C1127.69 188.316 1126.55 188.766 1124.39 188.766ZM1124.39 184.194C1120.87 184.194 1118.71 185.364 1118.71 187.38C1118.71 189.396 1120.87 190.566 1124.39 190.566C1127.9 190.566 1130.06 189.396 1130.06 187.38C1130.06 185.364 1127.9 184.194 1124.39 184.194Z" fill="#32335A"/>
</g>
<g id="Group 8">
<g id="Ellipse 15" filter="url(#filter1_d)">
<circle cx="870" cy="173" r="96" fill="white"/>
</g>
<path id="&#234;&#181;&#144;&#234;&#179;&#188;&#236;&#132;&#156; &#235;&#182;&#132;&#236;&#132;&#157; &#234;&#177;&#180;&#235;&#172;&#188;/ &#236;&#156;&#160;&#236;&#160;&#129; &#235;&#158;&#156;&#235;&#147;&#156;&#235;&#167;&#136;&#237;&#129;&#172; &#236;&#132;&#160;&#236;&#160;&#149;" d="M840.222 150.662C840.78 147.314 840.78 145.028 840.78 142.994V141.392H828.594V143.282H838.404C838.404 145.19 838.386 147.422 837.846 150.428L840.222 150.662ZM836.712 152.642V147.404H834.39V152.642H832.626V147.404H830.286V152.642H827.136V154.55H842.148V152.642H836.712ZM852.479 149.312C852.929 146.576 852.929 144.56 852.929 142.958V141.608H844.397V143.498H850.589C850.589 144.974 850.535 146.756 850.157 149.114L852.479 149.312ZM848.861 146.36H846.521V151.256C845.477 151.274 844.469 151.274 843.551 151.274L843.767 153.218C846.647 153.2 850.355 153.128 853.721 152.552L853.595 150.842C852.083 151.022 850.463 151.13 848.861 151.184V146.36ZM858.959 146.63H856.727V139.952H854.351V156.53H856.727V148.61H858.959V146.63ZM866.481 141.248H864.087V143.642C864.087 146.792 862.827 150.014 860.019 151.31L861.495 153.218C863.349 152.282 864.591 150.554 865.311 148.43C865.995 150.428 867.201 152.048 869.019 152.93L870.423 151.04C867.687 149.816 866.481 146.774 866.481 143.642V141.248ZM871.791 139.952V145.154H868.605V147.062H871.791V156.584H874.167V139.952H871.791ZM892.023 145.46H885.561V143.966H892.023V145.46ZM894.381 140.492H892.023V142.184H885.561V140.492H883.203V147.314H894.381V140.492ZM885.399 151.706H883.023V156.26H894.651V154.37H885.399V151.706ZM881.277 148.466V150.338H887.811V152.948H890.187V150.338H896.307V148.466H881.277ZM907.753 147.476C905.143 146.612 904.045 144.596 904.045 142.526V140.816H901.633V142.382C901.633 144.632 900.499 146.828 897.745 147.728L898.987 149.6C900.859 148.952 902.137 147.674 902.857 146.072C903.559 147.53 904.747 148.7 906.511 149.312L907.753 147.476ZM900.409 152.462H909.337V156.566H911.713V150.59H900.409V152.462ZM909.337 139.97V143.066H906.313V144.992H909.337V149.834H911.713V139.97H909.337ZM838.43 167.794V169.72H841.292V175.084H843.668V162.97H841.292V167.794H838.43ZM830.87 164.212V166.102H836.036C835.64 168.532 833.462 170.512 830.006 171.592L830.978 173.5C835.802 171.97 838.574 168.694 838.574 164.212H830.87ZM835.208 177.37V173.896H832.832V179.26H844.082V177.37H835.208ZM857.113 166.84H850.543V165.274H857.113V166.84ZM859.435 163.456H848.221V168.658H859.435V163.456ZM861.343 171.412V169.54H846.367V171.412H852.649V172.456H848.077V174.202H857.185V175.066H848.095V179.422H859.957V177.64H850.453V176.704H859.525V172.456H855.025V171.412H861.343ZM863.927 179.099H862.037L866.748 165.203H868.638L863.927 179.099ZM881.61 165.418C883.77 165.418 885.156 166.066 885.156 167.236C885.156 168.424 883.77 169.054 881.61 169.054C879.432 169.054 878.046 168.424 878.046 167.236C878.046 166.066 879.432 165.418 881.61 165.418ZM881.61 170.944C885.138 170.944 887.604 169.504 887.604 167.236C887.604 164.986 885.138 163.528 881.61 163.528C878.064 163.528 875.616 164.986 875.616 167.236C875.616 169.504 878.064 170.944 881.61 170.944ZM889.152 172.186H874.14V174.112H877.542V179.53H879.936V174.112H883.266V179.53H885.678V174.112H889.152V172.186ZM900.689 170.53C898.133 169.666 896.981 167.668 896.945 165.778H900.167V163.888H891.257V165.778H894.515C894.479 167.83 893.273 169.936 890.609 170.836L891.815 172.708C893.741 172.078 895.037 170.746 895.775 169.126C896.477 170.602 897.719 171.79 899.537 172.384L900.689 170.53ZM893.255 175.462H902.183V179.566H904.559V173.572H893.255V175.462ZM902.183 162.988V166.93H899.735V168.838H902.183V172.834H904.559V162.988H902.183ZM829.405 192.594H830.737V198.264H832.987V185.97H830.737V190.686H829.405V186.276H827.191V197.94H829.405V192.594ZM826.417 193.764C824.923 194.034 823.573 194.124 821.809 194.142V192.486H825.787V187.32H819.505V189.174H823.501V190.758H819.523V196.014H820.675C823.105 196.014 824.743 195.96 826.615 195.636L826.417 193.764ZM824.203 200.37V197.13H821.827V202.26H833.401V200.37H824.203ZM848.826 193.62H839.538V189.264H848.7V187.338H837.162V195.51H848.826V193.62ZM835.416 198.624V200.568H850.428V198.624H835.416ZM854.818 189.408H858.058V196.644H854.818V189.408ZM852.478 198.516H860.398V187.536H852.478V198.516ZM867.364 192.216H864.952V185.988H862.576V202.548H864.952V194.178H867.364V192.216ZM869.757 192.306L870.045 194.232L879.513 193.746C879.405 194.862 879.225 196.068 878.901 197.418L881.241 197.652C882.015 194.052 882.015 191.766 882.015 189.354V187.428H870.225V189.318H879.675V189.354C879.675 190.2 879.675 191.064 879.639 191.982L869.757 192.306ZM868.551 198.642V200.586H883.527V198.642H868.551ZM901.058 198.21H903.434V185.97H901.058V189.498H898.016V191.424H901.058V198.21ZM899.474 193.962C896.882 193.044 895.766 190.938 895.766 188.778V186.978H893.354V188.76C893.354 191.118 892.202 193.422 889.466 194.34L890.708 196.194C892.634 195.492 893.912 194.142 894.614 192.432C895.298 193.962 896.486 195.168 898.214 195.798L899.474 193.962ZM894.866 200.37V196.986H892.49V202.26H903.794V200.37H894.866ZM915.132 189.966V191.892H917.616V195.834H919.992V185.97H917.616V189.966H915.132ZM916.122 193.53C913.602 192.702 912.45 190.758 912.378 188.868H915.6V186.96H906.69V188.868H909.948C909.876 190.938 908.67 193.044 906.042 193.962L907.248 195.834C909.174 195.186 910.488 193.836 911.208 192.162C911.928 193.62 913.17 194.79 914.97 195.384L916.122 193.53ZM914.394 200.766C912.216 200.766 911.082 200.316 911.082 199.38C911.082 198.444 912.216 197.994 914.394 197.994C916.554 197.994 917.688 198.444 917.688 199.38C917.688 200.316 916.554 200.766 914.394 200.766ZM914.394 196.194C910.866 196.194 908.706 197.364 908.706 199.38C908.706 201.396 910.866 202.566 914.394 202.566C917.904 202.566 920.064 201.396 920.064 199.38C920.064 197.364 917.904 196.194 914.394 196.194Z" fill="#32335A"/>
</g>
<g id="Group 9">
<g id="Ellipse 16" filter="url(#filter2_d)">
<circle cx="660" cy="173" r="96" fill="white"/>
</g>
<path id="&#236;&#167;&#128;&#236;&#151;&#173; &#235;&#130;&#180; &#236;&#131;&#129;&#236;&#167;&#149;&#236;&#160;&#129; &#235;&#158;&#156;&#235;&#147;&#156;&#235;&#167;&#136;&#237;&#129;&#172;" d="M638.362 154.516H641.782V152.554H632.494V154.516H635.95V155.434C635.95 158.26 634.6 161.302 631.828 162.544L633.178 164.434C635.122 163.552 636.454 161.734 637.192 159.574C637.93 161.572 639.244 163.192 641.17 164.02L642.466 162.148C639.694 160.996 638.362 158.134 638.362 155.434V154.516ZM643.312 150.97V167.548H645.688V150.97H643.312ZM651.086 163.408H659.996V167.566H662.372V161.536H651.086V163.408ZM657.368 156.802C657.422 156.514 657.458 156.226 657.458 155.938C657.458 155.632 657.422 155.362 657.368 155.092H659.996V156.802H657.368ZM653.084 158.026C651.878 158.026 650.978 157.252 650.978 155.938C650.978 154.642 651.878 153.868 653.084 153.868C654.308 153.868 655.208 154.642 655.208 155.938C655.208 157.252 654.308 158.026 653.084 158.026ZM659.996 150.97V153.202H656.414C655.622 152.356 654.434 151.834 653.084 151.834C650.636 151.834 648.728 153.562 648.728 155.938C648.728 158.332 650.636 160.06 653.084 160.06C654.416 160.06 655.604 159.538 656.396 158.692H659.996V160.78H662.372V150.97H659.996ZM672.577 152.806H670.201V163.516H671.353C673.009 163.516 674.917 163.426 677.077 163.03L676.879 161.032C675.295 161.32 673.873 161.428 672.577 161.464V152.806ZM681.487 150.952V157.342H679.993V151.258H677.779V166.756H679.993V159.268H681.487V167.53H683.755V150.952H681.487ZM610.852 181.314C608.242 180.504 607.126 178.56 607.126 176.562V174.87H604.714V176.364C604.714 178.614 603.598 180.828 600.826 181.746L602.068 183.618C603.958 182.952 605.236 181.674 605.956 180.054C606.658 181.458 607.864 182.574 609.61 183.15L610.852 181.314ZM608.71 188.712C606.586 188.712 605.452 188.28 605.452 187.344C605.452 186.426 606.586 185.994 608.71 185.994C610.816 185.994 611.95 186.426 611.95 187.344C611.95 188.28 610.816 188.712 608.71 188.712ZM608.71 184.158C605.254 184.158 603.094 185.346 603.094 187.344C603.094 189.36 605.254 190.548 608.71 190.548C612.148 190.548 614.308 189.36 614.308 187.344C614.308 185.346 612.148 184.158 608.71 184.158ZM614.128 177.822V173.988H611.752V183.78H614.128V179.784H616.324V177.822H614.128ZM631.406 173.97H629.012V183.816H631.406V173.97ZM627.968 181.44C625.394 180.648 624.188 178.794 624.08 176.94H627.356V175.068H618.338V176.94H621.668C621.578 178.974 620.372 180.99 617.708 181.854L618.932 183.708C620.858 183.078 622.19 181.764 622.928 180.144C623.684 181.584 624.944 182.736 626.78 183.294L627.968 181.44ZM625.808 188.766C623.648 188.766 622.496 188.316 622.496 187.38C622.496 186.426 623.648 185.976 625.808 185.976C627.95 185.976 629.102 186.426 629.102 187.38C629.102 188.316 627.95 188.766 625.808 188.766ZM625.808 184.14C622.316 184.14 620.138 185.328 620.138 187.38C620.138 189.396 622.316 190.584 625.808 190.584C629.282 190.584 631.46 189.396 631.46 187.38C631.46 185.328 629.282 184.14 625.808 184.14ZM644.185 181.53C641.629 180.666 640.477 178.668 640.441 176.778H643.663V174.888H634.753V176.778H638.011C637.975 178.83 636.769 180.936 634.105 181.836L635.311 183.708C637.237 183.078 638.533 181.746 639.271 180.126C639.973 181.602 641.215 182.79 643.033 183.384L644.185 181.53ZM636.751 186.462H645.679V190.566H648.055V184.572H636.751V186.462ZM645.679 173.988V177.93H643.231V179.838H645.679V183.834H648.055V173.988H645.679ZM665.784 180.594H667.116V186.264H669.366V173.97H667.116V178.686H665.784V174.276H663.57V185.94H665.784V180.594ZM662.796 181.764C661.302 182.034 659.952 182.124 658.188 182.142V180.486H662.166V175.32H655.884V177.174H659.88V178.758H655.902V184.014H657.054C659.484 184.014 661.122 183.96 662.994 183.636L662.796 181.764ZM660.582 188.37V185.13H658.206V190.26H669.78V188.37H660.582ZM685.205 181.62H675.917V177.264H685.079V175.338H673.541V183.51H685.205V181.62ZM671.795 186.624V188.568H686.807V186.624H671.795ZM691.197 177.408H694.437V184.644H691.197V177.408ZM688.857 186.516H696.777V175.536H688.857V186.516ZM703.743 180.216H701.331V173.988H698.955V190.548H701.331V182.178H703.743V180.216ZM706.136 180.306L706.424 182.232L715.892 181.746C715.784 182.862 715.604 184.068 715.28 185.418L717.62 185.652C718.394 182.052 718.394 179.766 718.394 177.354V175.428H706.604V177.318H716.054V177.354C716.054 178.2 716.054 179.064 716.018 179.982L706.136 180.306ZM704.93 186.642V188.586H719.906V186.642H704.93Z" fill="#32335A"/>
</g>
<g id="Group 10">
<g id="Ellipse 17" filter="url(#filter3_d)">
<circle cx="450" cy="173" r="96" fill="white"/>
</g>
<path id="&#235;&#143;&#132;&#236;&#139;&#156; &#235;&#130;&#180; &#236;&#167;&#128;&#236;&#151;&#173;&#236;&#157;&#180;&#235;&#166;&#132; &#235;&#158;&#156;&#235;&#147;&#156;&#235;&#167;&#136;&#237;&#129;&#172;" d="M435.63 163.732V160.276H440.364V158.368H431.094V154.012H440.238V152.104H428.7V160.276H433.254V163.732H426.954V165.676H441.966V163.732H435.63ZM449.938 152.248H447.562V154.66C447.562 157.882 446.194 161.086 443.296 162.328L444.718 164.29C446.698 163.354 448.048 161.572 448.786 159.358C449.524 161.392 450.802 163.03 452.71 163.894L454.06 161.968C451.252 160.762 449.938 157.738 449.938 154.66V152.248ZM454.87 150.952V167.584H457.246V150.952H454.87ZM467.577 152.806H465.201V163.516H466.353C468.009 163.516 469.917 163.426 472.077 163.03L471.879 161.032C470.295 161.32 468.873 161.428 467.577 161.464V152.806ZM476.487 150.952V157.342H474.993V151.258H472.779V166.756H474.993V159.268H476.487V167.53H478.755V150.952H476.487ZM394.206 177.516H397.626V175.554H388.338V177.516H391.794V178.434C391.794 181.26 390.444 184.302 387.672 185.544L389.022 187.434C390.966 186.552 392.298 184.734 393.036 182.574C393.774 184.572 395.088 186.192 397.014 187.02L398.31 185.148C395.538 183.996 394.206 181.134 394.206 178.434V177.516ZM399.156 173.97V190.548H401.532V173.97H399.156ZM406.931 186.408H415.841V190.566H418.217V184.536H406.931V186.408ZM413.213 179.802C413.267 179.514 413.303 179.226 413.303 178.938C413.303 178.632 413.267 178.362 413.213 178.092H415.841V179.802H413.213ZM408.929 181.026C407.723 181.026 406.823 180.252 406.823 178.938C406.823 177.642 407.723 176.868 408.929 176.868C410.153 176.868 411.053 177.642 411.053 178.938C411.053 180.252 410.153 181.026 408.929 181.026ZM415.841 173.97V176.202H412.259C411.467 175.356 410.279 174.834 408.929 174.834C406.481 174.834 404.573 176.562 404.573 178.938C404.573 181.332 406.481 183.06 408.929 183.06C410.261 183.06 411.449 182.538 412.241 181.692H415.841V183.78H418.217V173.97H415.841ZM432.274 173.952V190.584H434.65V173.952H432.274ZM425.74 175.122C423.238 175.122 421.384 177.39 421.384 181.026C421.384 184.68 423.238 186.966 425.74 186.966C428.242 186.966 430.096 184.68 430.096 181.026C430.096 177.39 428.242 175.122 425.74 175.122ZM425.74 177.264C426.964 177.264 427.81 178.578 427.81 181.026C427.81 183.492 426.964 184.806 425.74 184.806C424.516 184.806 423.67 183.492 423.67 181.026C423.67 178.578 424.516 177.264 425.74 177.264ZM448.31 177.03H439.346V181.458H450.974V179.658H441.686V178.704H450.65V174.294H439.31V176.094H448.31V177.03ZM441.704 187.074H448.418V188.496H441.704V187.074ZM439.364 190.35H450.74V185.202H439.364V190.35ZM437.474 182.34V184.212H452.486V182.34H437.474ZM469.063 180.594H470.395V186.264H472.645V173.97H470.395V178.686H469.063V174.276H466.849V185.94H469.063V180.594ZM466.075 181.764C464.581 182.034 463.231 182.124 461.467 182.142V180.486H465.445V175.32H459.163V177.174H463.159V178.758H459.181V184.014H460.333C462.763 184.014 464.401 183.96 466.273 183.636L466.075 181.764ZM463.861 188.37V185.13H461.485V190.26H473.059V188.37H463.861ZM488.484 181.62H479.196V177.264H488.358V175.338H476.82V183.51H488.484V181.62ZM475.074 186.624V188.568H490.086V186.624H475.074ZM494.476 177.408H497.716V184.644H494.476V177.408ZM492.136 186.516H500.056V175.536H492.136V186.516ZM507.022 180.216H504.61V173.988H502.234V190.548H504.61V182.178H507.022V180.216ZM509.415 180.306L509.703 182.232L519.171 181.746C519.063 182.862 518.883 184.068 518.559 185.418L520.899 185.652C521.673 182.052 521.673 179.766 521.673 177.354V175.428H509.883V177.318H519.333V177.354C519.333 178.2 519.333 179.064 519.297 179.982L509.415 180.306ZM508.209 186.642V188.586H523.185V186.642H508.209Z" fill="#32335A"/>
</g>
<g id="Group 11">
<g id="Ellipse 14" filter="url(#filter4_d)">
<ellipse cx="155" cy="172.5" rx="127" ry="127.5" fill="#32335A"/>
</g>
<path id="&#236;&#157;&#184;&#234;&#181;&#172;&#236;&#136;&#152; &#234;&#184;&#176;&#236;&#164;&#128; 50&#234;&#176;&#156; &#235;&#143;&#132;&#236;&#139;&#156; &#236;&#132;&#160;&#236;&#160;&#149;" d="M115.208 145.984H112.016V161.848H115.208V145.984ZM100.256 152.992C100.256 151.168 101.552 150.112 103.184 150.112C104.84 150.112 106.088 151.168 106.088 152.992C106.088 154.768 104.84 155.848 103.184 155.848C101.552 155.848 100.256 154.768 100.256 152.992ZM109.184 152.992C109.184 149.728 106.568 147.376 103.184 147.376C99.8004 147.376 97.1604 149.728 97.1604 152.992C97.1604 156.208 99.8004 158.584 103.184 158.584C106.568 158.584 109.184 156.208 109.184 152.992ZM103.664 165.16V160.288H100.496V167.68H115.76V165.16H103.664ZM138.919 156.64H136.015C136.567 153.544 136.567 151.288 136.567 149.224V147.232H121.231V149.776H133.471C133.471 151.672 133.423 153.832 132.871 156.64H118.951V159.184H127.207V168.064H130.423V159.184H138.919V156.64ZM160.277 153.808C155.261 153.112 152.717 150.232 152.717 147.664V146.608H149.333V147.664C149.333 150.256 146.813 153.112 141.773 153.808L142.973 156.352C146.837 155.776 149.621 153.976 151.037 151.6C152.453 153.976 155.213 155.776 159.077 156.352L160.277 153.808ZM160.997 157.984H141.029V160.552H149.357V168.088H152.525V160.552H160.997V157.984ZM170.283 148.24V150.76H177.651C177.195 155.656 174.747 159.112 169.107 161.824L170.763 164.32C178.611 160.528 180.891 155.008 180.891 148.24H170.283ZM184.275 145.936V168.04H187.467V145.936H184.275ZM193.153 155.92C197.281 155.464 199.993 153.76 201.121 151.504C202.297 153.76 204.985 155.464 209.089 155.92L210.241 153.448C205.921 152.968 203.737 151.192 203.377 149.416H209.329V146.896H192.961V149.416H198.889C198.505 151.168 196.297 152.968 192.025 153.448L193.153 155.92ZM196.609 161.32H193.441V167.68H208.921V165.16H196.609V161.32ZM191.113 156.976V159.472H199.825V163.216H202.993V159.472H211.153V156.976H191.113ZM80.7109 186.609L81.6953 177.938H91.2578V180.762H84.4727L84.0508 184.43C84.8555 184 85.7109 183.785 86.6172 183.785C88.2422 183.785 89.5156 184.289 90.4375 185.297C91.3594 186.305 91.8203 187.715 91.8203 189.527C91.8203 190.629 91.5859 191.617 91.1172 192.492C90.6562 193.359 89.9922 194.035 89.125 194.52C88.2578 194.996 87.2344 195.234 86.0547 195.234C85.0234 195.234 84.0664 195.027 83.1836 194.613C82.3008 194.191 81.6016 193.602 81.0859 192.844C80.5781 192.086 80.3086 191.223 80.2773 190.254H83.6289C83.6992 190.965 83.9453 191.52 84.3672 191.918C84.7969 192.309 85.3555 192.504 86.043 192.504C86.8086 192.504 87.3984 192.23 87.8125 191.684C88.2266 191.129 88.4336 190.348 88.4336 189.34C88.4336 188.371 88.1953 187.629 87.7188 187.113C87.2422 186.598 86.5664 186.34 85.6914 186.34C84.8867 186.34 84.2344 186.551 83.7344 186.973L83.4062 187.277L80.7109 186.609ZM105.473 187.945C105.473 190.305 104.984 192.109 104.008 193.359C103.031 194.609 101.602 195.234 99.7188 195.234C97.8594 195.234 96.4375 194.621 95.4531 193.395C94.4688 192.168 93.9648 190.41 93.9414 188.121V184.98C93.9414 182.598 94.4336 180.789 95.418 179.555C96.4102 178.32 97.8359 177.703 99.6953 177.703C101.555 177.703 102.977 178.316 103.961 179.543C104.945 180.762 105.449 182.516 105.473 184.805V187.945ZM102.086 184.5C102.086 183.086 101.891 182.059 101.5 181.418C101.117 180.77 100.516 180.445 99.6953 180.445C98.8984 180.445 98.3086 180.754 97.9258 181.371C97.5508 181.98 97.3516 182.938 97.3281 184.242V188.391C97.3281 189.781 97.5156 190.816 97.8906 191.496C98.2734 192.168 98.8828 192.504 99.7188 192.504C100.547 192.504 101.145 192.18 101.512 191.531C101.879 190.883 102.07 189.891 102.086 188.555V184.5ZM108.481 177.696V180.216H114.073C113.665 184.56 111.793 187.752 107.353 190.344L109.201 192.552C115.369 188.952 117.193 183.888 117.193 177.696H108.481ZM123.553 174.96V183.288H121.585V175.536H118.633V196.128H121.585V185.832H123.553V197.064H126.577V174.96H123.553ZM147.264 191.976V187.368H153.576V184.824H141.216V179.016H153.408V176.472H138.024V187.368H144.096V191.976H135.696V194.568H155.712V191.976H147.264ZM166.342 176.664H163.174V179.88C163.174 184.176 161.35 188.448 157.486 190.104L159.382 192.72C162.022 191.472 163.822 189.096 164.806 186.144C165.79 188.856 167.494 191.04 170.038 192.192L171.838 189.624C168.094 188.016 166.342 183.984 166.342 179.88V176.664ZM172.918 174.936V197.112H176.086V174.936H172.918ZM201.141 191.28H204.309V174.96H201.141V179.664H197.085V182.232H201.141V191.28ZM199.029 185.616C195.573 184.392 194.085 181.584 194.085 178.704V176.304H190.869V178.68C190.869 181.824 189.333 184.896 185.685 186.12L187.341 188.592C189.909 187.656 191.613 185.856 192.549 183.576C193.461 185.616 195.045 187.224 197.349 188.064L199.029 185.616ZM192.885 194.16V189.648H189.717V196.68H204.789V194.16H192.885ZM219.907 180.288V182.856H223.219V188.112H226.387V174.96H223.219V180.288H219.907ZM221.227 185.04C217.867 183.936 216.331 181.344 216.235 178.824H220.531V176.28H208.651V178.824H212.995C212.899 181.584 211.291 184.392 207.787 185.616L209.395 188.112C211.963 187.248 213.715 185.448 214.675 183.216C215.635 185.16 217.291 186.72 219.691 187.512L221.227 185.04ZM218.923 194.688C216.019 194.688 214.507 194.088 214.507 192.84C214.507 191.592 216.019 190.992 218.923 190.992C221.803 190.992 223.315 191.592 223.315 192.84C223.315 194.088 221.803 194.688 218.923 194.688ZM218.923 188.592C214.219 188.592 211.339 190.152 211.339 192.84C211.339 195.528 214.219 197.088 218.923 197.088C223.603 197.088 226.483 195.528 226.483 192.84C226.483 190.152 223.603 188.592 218.923 188.592Z" fill="white"/>
</g>
<path id="Vector 1" d="M325 159L311 171.5L325 183.5" stroke="#32335A" stroke-width="2"/>
<g id="Group 12" filter="url(#filter5_d)">
<circle id="Ellipse 16_2" cx="154.5" cy="44.5" r="33.5" fill="white"/>
<path id="100" d="M145.096 51H142.273V40.1211L138.904 41.166V38.8711L144.793 36.7617H145.096V51ZM159.295 45.1211C159.295 47.0872 158.888 48.5911 158.074 49.6328C157.26 50.6745 156.069 51.1953 154.5 51.1953C152.951 51.1953 151.766 50.6842 150.945 49.6621C150.125 48.64 149.705 47.1751 149.686 45.2676V42.6504C149.686 40.6647 150.096 39.1576 150.916 38.1289C151.743 37.1003 152.931 36.5859 154.48 36.5859C156.03 36.5859 157.215 37.097 158.035 38.1191C158.855 39.1348 159.275 40.5964 159.295 42.5039V45.1211ZM156.473 42.25C156.473 41.0716 156.31 40.2155 155.984 39.6816C155.665 39.1413 155.164 38.8711 154.48 38.8711C153.816 38.8711 153.325 39.1283 153.006 39.6426C152.693 40.1504 152.527 40.9479 152.508 42.0352V45.4922C152.508 46.651 152.664 47.5137 152.977 48.0801C153.296 48.64 153.803 48.9199 154.5 48.9199C155.19 48.9199 155.688 48.6497 155.994 48.1094C156.3 47.569 156.46 46.7422 156.473 45.6289V42.25ZM170.779 45.1211C170.779 47.0872 170.372 48.5911 169.559 49.6328C168.745 50.6745 167.553 51.1953 165.984 51.1953C164.435 51.1953 163.25 50.6842 162.43 49.6621C161.609 48.64 161.189 47.1751 161.17 45.2676V42.6504C161.17 40.6647 161.58 39.1576 162.4 38.1289C163.227 37.1003 164.415 36.5859 165.965 36.5859C167.514 36.5859 168.699 37.097 169.52 38.1191C170.34 39.1348 170.76 40.5964 170.779 42.5039V45.1211ZM167.957 42.25C167.957 41.0716 167.794 40.2155 167.469 39.6816C167.15 39.1413 166.648 38.8711 165.965 38.8711C165.301 38.8711 164.809 39.1283 164.49 39.6426C164.178 40.1504 164.012 40.9479 163.992 42.0352V45.4922C163.992 46.651 164.148 47.5137 164.461 48.0801C164.78 48.64 165.288 48.9199 165.984 48.9199C166.674 48.9199 167.173 48.6497 167.479 48.1094C167.785 47.569 167.944 46.7422 167.957 45.6289V42.25Z" fill="#32335A"/>
</g>
<g id="Group 17">
<g id="Group 13">
<circle id="Ellipse 12_2" cx="449.5" cy="76.5" r="21.75" fill="#32335A" stroke="#32335A" stroke-width="1.5"/>
<path id="50" d="M441.427 76.7559L442.042 71.3359H448.019V73.1011H443.778L443.514 75.3936C444.017 75.125 444.552 74.9907 445.118 74.9907C446.134 74.9907 446.93 75.3057 447.506 75.9355C448.082 76.5654 448.37 77.4468 448.37 78.5796C448.37 79.2681 448.224 79.8857 447.931 80.4326C447.643 80.9746 447.228 81.397 446.686 81.6997C446.144 81.9976 445.504 82.1465 444.767 82.1465C444.122 82.1465 443.524 82.0171 442.972 81.7583C442.42 81.4946 441.983 81.126 441.661 80.6523C441.344 80.1787 441.175 79.6392 441.156 79.0337H443.25C443.294 79.478 443.448 79.8247 443.712 80.0737C443.98 80.3179 444.33 80.4399 444.759 80.4399C445.238 80.4399 445.606 80.269 445.865 79.9272C446.124 79.5806 446.253 79.0923 446.253 78.4624C446.253 77.8569 446.104 77.3931 445.807 77.0708C445.509 76.7485 445.086 76.5874 444.54 76.5874C444.037 76.5874 443.629 76.7192 443.316 76.9829L443.111 77.1733L441.427 76.7559ZM456.903 77.5908C456.903 79.0654 456.598 80.1934 455.987 80.9746C455.377 81.7559 454.483 82.1465 453.307 82.1465C452.145 82.1465 451.256 81.7632 450.641 80.9966C450.025 80.23 449.71 79.1313 449.696 77.7007V75.7378C449.696 74.2485 450.003 73.1182 450.619 72.3467C451.239 71.5752 452.13 71.1895 453.292 71.1895C454.454 71.1895 455.343 71.5728 455.958 72.3394C456.573 73.1011 456.888 74.1973 456.903 75.6279V77.5908ZM454.786 75.4375C454.786 74.5537 454.664 73.9116 454.42 73.5112C454.181 73.106 453.805 72.9033 453.292 72.9033C452.794 72.9033 452.425 73.0962 452.186 73.4819C451.952 73.8628 451.827 74.4609 451.812 75.2764V77.8691C451.812 78.7383 451.93 79.3853 452.164 79.8101C452.403 80.23 452.784 80.4399 453.307 80.4399C453.824 80.4399 454.198 80.2373 454.427 79.832C454.657 79.4268 454.776 78.8066 454.786 77.9717V75.4375Z" fill="white"/>
</g>
<g id="Group 14">
<g id="Group 3">
<circle id="Ellipse 13" cx="659.5" cy="76.5" r="21.75" fill="#32335A" stroke="#32335A" stroke-width="1.5"/>
<path id="30" d="M653.265 75.7305H654.393C654.93 75.7305 655.328 75.5962 655.587 75.3276C655.846 75.0591 655.975 74.7026 655.975 74.2583C655.975 73.8286 655.846 73.4941 655.587 73.2549C655.333 73.0156 654.981 72.896 654.532 72.896C654.127 72.896 653.788 73.0083 653.514 73.2329C653.241 73.4526 653.104 73.7407 653.104 74.0972H650.987C650.987 73.5405 651.136 73.0425 651.434 72.603C651.737 72.1587 652.157 71.812 652.694 71.563C653.236 71.314 653.832 71.1895 654.481 71.1895C655.609 71.1895 656.493 71.4604 657.132 72.0024C657.772 72.5396 658.092 73.2817 658.092 74.229C658.092 74.7173 657.943 75.1665 657.645 75.5767C657.347 75.9868 656.957 76.3018 656.473 76.5215C657.074 76.7363 657.521 77.0586 657.813 77.4883C658.111 77.918 658.26 78.4258 658.26 79.0117C658.26 79.959 657.914 80.7183 657.22 81.2896C656.532 81.8608 655.619 82.1465 654.481 82.1465C653.417 82.1465 652.545 81.8657 651.866 81.3042C651.192 80.7427 650.855 80.0005 650.855 79.0776H652.972C652.972 79.478 653.121 79.8052 653.419 80.0591C653.722 80.313 654.093 80.4399 654.532 80.4399C655.035 80.4399 655.428 80.3081 655.711 80.0444C656 79.7759 656.144 79.4219 656.144 78.9824C656.144 77.918 655.558 77.3857 654.386 77.3857H653.265V75.7305ZM666.903 77.5908C666.903 79.0654 666.598 80.1934 665.987 80.9746C665.377 81.7559 664.483 82.1465 663.307 82.1465C662.145 82.1465 661.256 81.7632 660.641 80.9966C660.025 80.23 659.71 79.1313 659.696 77.7007V75.7378C659.696 74.2485 660.003 73.1182 660.619 72.3467C661.239 71.5752 662.13 71.1895 663.292 71.1895C664.454 71.1895 665.343 71.5728 665.958 72.3394C666.573 73.1011 666.888 74.1973 666.903 75.6279V77.5908ZM664.786 75.4375C664.786 74.5537 664.664 73.9116 664.42 73.5112C664.181 73.106 663.805 72.9033 663.292 72.9033C662.794 72.9033 662.425 73.0962 662.186 73.4819C661.952 73.8628 661.827 74.4609 661.812 75.2764V77.8691C661.812 78.7383 661.93 79.3853 662.164 79.8101C662.403 80.23 662.784 80.4399 663.307 80.4399C663.824 80.4399 664.198 80.2373 664.427 79.832C664.657 79.4268 664.776 78.8066 664.786 77.9717V75.4375Z" fill="white"/>
</g>
</g>
<g id="Group 15">
<circle id="Ellipse 14_2" cx="870.5" cy="76.5" r="21.75" fill="#32335A" stroke="#32335A" stroke-width="1.5"/>
<path id="10" d="M867.253 82H865.137V73.8408L862.61 74.6245V72.9033L867.026 71.3213H867.253V82ZM877.903 77.5908C877.903 79.0654 877.598 80.1934 876.987 80.9746C876.377 81.7559 875.483 82.1465 874.307 82.1465C873.145 82.1465 872.256 81.7632 871.641 80.9966C871.025 80.23 870.71 79.1313 870.696 77.7007V75.7378C870.696 74.2485 871.003 73.1182 871.619 72.3467C872.239 71.5752 873.13 71.1895 874.292 71.1895C875.454 71.1895 876.343 71.5728 876.958 72.3394C877.573 73.1011 877.888 74.1973 877.903 75.6279V77.5908ZM875.786 75.4375C875.786 74.5537 875.664 73.9116 875.42 73.5112C875.181 73.106 874.805 72.9033 874.292 72.9033C873.794 72.9033 873.425 73.0962 873.186 73.4819C872.952 73.8628 872.827 74.4609 872.812 75.2764V77.8691C872.812 78.7383 872.93 79.3853 873.164 79.8101C873.403 80.23 873.784 80.4399 874.307 80.4399C874.824 80.4399 875.198 80.2373 875.427 79.832C875.657 79.4268 875.776 78.8066 875.786 77.9717V75.4375Z" fill="white"/>
</g>
<g id="Group 16">
<circle id="Ellipse 15_2" cx="1079.5" cy="76.5" r="21.75" fill="#32335A" stroke="#32335A" stroke-width="1.5"/>
<path id="10_2" d="M1076.25 82H1074.14V73.8408L1071.61 74.6245V72.9033L1076.03 71.3213H1076.25V82ZM1086.9 77.5908C1086.9 79.0654 1086.6 80.1934 1085.99 80.9746C1085.38 81.7559 1084.48 82.1465 1083.31 82.1465C1082.14 82.1465 1081.26 81.7632 1080.64 80.9966C1080.03 80.23 1079.71 79.1313 1079.7 77.7007V75.7378C1079.7 74.2485 1080 73.1182 1080.62 72.3467C1081.24 71.5752 1082.13 71.1895 1083.29 71.1895C1084.45 71.1895 1085.34 71.5728 1085.96 72.3394C1086.57 73.1011 1086.89 74.1973 1086.9 75.6279V77.5908ZM1084.79 75.4375C1084.79 74.5537 1084.66 73.9116 1084.42 73.5112C1084.18 73.106 1083.8 72.9033 1083.29 72.9033C1082.79 72.9033 1082.43 73.0962 1082.19 73.4819C1081.95 73.8628 1081.83 74.4609 1081.81 75.2764V77.8691C1081.81 78.7383 1081.93 79.3853 1082.16 79.8101C1082.4 80.23 1082.78 80.4399 1083.31 80.4399C1083.82 80.4399 1084.2 80.2373 1084.43 79.832C1084.66 79.4268 1084.78 78.8066 1084.79 77.9717V75.4375Z" fill="white"/>
</g>
</g>
</g>
<defs>
<filter id="filter0_d" x="968" y="61" width="232" height="232" filterUnits="userSpaceOnUse" color-interpolation-filters="sRGB">
<feFlood flood-opacity="0" result="BackgroundImageFix"/>
<feColorMatrix in="SourceAlpha" type="matrix" values="0 0 0 0 0 0 0 0 0 0 0 0 0 0 0 0 0 0 127 0"/>
<feOffset dx="4" dy="4"/>
<feGaussianBlur stdDeviation="10"/>
<feColorMatrix type="matrix" values="0 0 0 0 0 0 0 0 0 0 0 0 0 0 0 0 0 0 0.08 0"/>
<feBlend mode="normal" in2="BackgroundImageFix" result="effect1_dropShadow"/>
<feBlend mode="normal" in="SourceGraphic" in2="effect1_dropShadow" result="shape"/>
</filter>
<filter id="filter1_d" x="758" y="61" width="232" height="232" filterUnits="userSpaceOnUse" color-interpolation-filters="sRGB">
<feFlood flood-opacity="0" result="BackgroundImageFix"/>
<feColorMatrix in="SourceAlpha" type="matrix" values="0 0 0 0 0 0 0 0 0 0 0 0 0 0 0 0 0 0 127 0"/>
<feOffset dx="4" dy="4"/>
<feGaussianBlur stdDeviation="10"/>
<feColorMatrix type="matrix" values="0 0 0 0 0 0 0 0 0 0 0 0 0 0 0 0 0 0 0.08 0"/>
<feBlend mode="normal" in2="BackgroundImageFix" result="effect1_dropShadow"/>
<feBlend mode="normal" in="SourceGraphic" in2="effect1_dropShadow" result="shape"/>
</filter>
<filter id="filter2_d" x="548" y="61" width="232" height="232" filterUnits="userSpaceOnUse" color-interpolation-filters="sRGB">
<feFlood flood-opacity="0" result="BackgroundImageFix"/>
<feColorMatrix in="SourceAlpha" type="matrix" values="0 0 0 0 0 0 0 0 0 0 0 0 0 0 0 0 0 0 127 0"/>
<feOffset dx="4" dy="4"/>
<feGaussianBlur stdDeviation="10"/>
<feColorMatrix type="matrix" values="0 0 0 0 0 0 0 0 0 0 0 0 0 0 0 0 0 0 0.08 0"/>
<feBlend mode="normal" in2="BackgroundImageFix" result="effect1_dropShadow"/>
<feBlend mode="normal" in="SourceGraphic" in2="effect1_dropShadow" result="shape"/>
</filter>
<filter id="filter3_d" x="338" y="61" width="232" height="232" filterUnits="userSpaceOnUse" color-interpolation-filters="sRGB">
<feFlood flood-opacity="0" result="BackgroundImageFix"/>
<feColorMatrix in="SourceAlpha" type="matrix" values="0 0 0 0 0 0 0 0 0 0 0 0 0 0 0 0 0 0 127 0"/>
<feOffset dx="4" dy="4"/>
<feGaussianBlur stdDeviation="10"/>
<feColorMatrix type="matrix" values="0 0 0 0 0 0 0 0 0 0 0 0 0 0 0 0 0 0 0.08 0"/>
<feBlend mode="normal" in2="BackgroundImageFix" result="effect1_dropShadow"/>
<feBlend mode="normal" in="SourceGraphic" in2="effect1_dropShadow" result="shape"/>
</filter>
<filter id="filter4_d" x="0" y="17" width="316" height="317" filterUnits="userSpaceOnUse" color-interpolation-filters="sRGB">
<feFlood flood-opacity="0" result="BackgroundImageFix"/>
<feColorMatrix in="SourceAlpha" type="matrix" values="0 0 0 0 0 0 0 0 0 0 0 0 0 0 0 0 0 0 127 0"/>
<feMorphology radius="10" operator="dilate" in="SourceAlpha" result="effect1_dropShadow"/>
<feOffset dx="3" dy="3"/>
<feGaussianBlur stdDeviation="10.5"/>
<feColorMatrix type="matrix" values="0 0 0 0 0 0 0 0 0 0 0 0 0 0 0 0 0 0 0.13 0"/>
<feBlend mode="normal" in2="BackgroundImageFix" result="effect1_dropShadow"/>
<feBlend mode="normal" in="SourceGraphic" in2="effect1_dropShadow" result="shape"/>
</filter>
<filter id="filter5_d" x="111" y="0" width="87" height="87" filterUnits="userSpaceOnUse" color-interpolation-filters="sRGB">
<feFlood flood-opacity="0" result="BackgroundImageFix"/>
<feColorMatrix in="SourceAlpha" type="matrix" values="0 0 0 0 0 0 0 0 0 0 0 0 0 0 0 0 0 0 127 0"/>
<feOffset dy="-1"/>
<feGaussianBlur stdDeviation="5"/>
<feColorMatrix type="matrix" values="0 0 0 0 0 0 0 0 0 0 0 0 0 0 0 0 0 0 0.12 0"/>
<feBlend mode="normal" in2="BackgroundImageFix" result="effect1_dropShadow"/>
<feBlend mode="normal" in="SourceGraphic" in2="effect1_dropShadow" result="shape"/>
</filter>
</defs>
</svg>
